<?xml version="1.0" encoding="utf-8"?>
<!-- Generator: Adobe Illustrator 22.1.0, SVG Export Plug-In . SVG Version: 6.00 Build 0)  -->
<svg version="1.1" id="Group_5_copy" xmlns="http://www.w3.org/2000/svg" xmlns:xlink="http://www.w3.org/1999/xlink" x="0px"
	 y="0px" viewBox="0 0 851.4 269" style="enable-background:new 0 0 851.4 269;" xml:space="preserve">
<style type="text/css">
	.st0{fill:#0068AE;}
	.st1{fill:#96C5E4;}
	.st2{fill:#5FA5D4;}
	.st3{fill:#F08D28;}
	.st4{enable-background:new    ;}
	.st5{fill:#313131;}
</style>
<g>
	<path class="st0" d="M15.1,122.4l37.3-25.9l25.7,37.6L40.8,160L15.1,122.4z"/>
	<path id="Rectangle_1_copy_2" class="st1" d="M55.5,94.4l37.3-25.9l25.7,37.6L81.2,132L55.5,94.4z"/>
	<path id="Rectangle_1_copy_6" class="st0" d="M27.8,53.9L65.1,28l25.7,37.6L53.5,91.5L27.8,53.9z"/>
	<path id="Rectangle_1_copy_7" class="st2" d="M68.2,25.9L105.5,0l25.7,37.6L93.9,63.5L68.2,25.9z"/>
	<path class="st3" d="M8.1,112.2c0,0-23.5-30.4,9.3-51.2l7.2-5l25.7,37.6l-37.3,25.9L8.1,112.2z"/>
	<path id="Rectangle_1_copy" class="st2" d="M42.7,162.8L80.1,137l25.7,37.6l-37.3,25.9L42.7,162.8z"/>
	<g id="FabDep" class="st4">
		<path d="M222,172.8V52.4h86.6v21.9h-63.9v32.9h60.4v21h-60.4v44.6H222z"/>
		<path d="M390.1,87.9h20.1v84.9h-19.8l-1-12.4c-4.8,10-18.1,14.8-27.6,15c-25.1,0.2-43.7-15.3-43.7-45.1
			c0-29.3,19.5-44.6,44.3-44.4c11.4,0,22.2,5.3,27,13.8L390.1,87.9z M339.1,130.2c0,16.2,11.2,25.8,25.1,25.8
			c33.1,0,33.1-51.5,0-51.5C350.3,104.6,339.1,114,339.1,130.2z"/>
		<path d="M447.3,52.4v47c5-8.8,18.9-13.6,27.9-13.6c24.8,0,43.2,15.2,43.2,44.4c0,27.9-18.8,44.4-43.7,44.4
			c-10.3,0-20.8-3.4-27.4-13.6l-1.4,11.7h-19.6V52.4H447.3z M448.6,130.2c0,15.3,11.4,25,24.6,25c13.4,0,24.1-10.2,24.1-25
			c0-15.3-10.7-24.8-24.1-24.8C460,105.4,448.6,115.4,448.6,130.2z"/>
		<path d="M641.5,111.5c0.5,30.5-18.1,61.3-60.3,61.3c-14.8,0-32.5,0-47.4,0V52.2c14.8,0,32.5,0,47.4,0
			C622.6,52.2,641,81.7,641.5,111.5z M556.4,150.9h24.8c27.4,0,38.2-20,37.7-39.6c-0.5-18.8-11.5-37.5-37.7-37.5h-24.8V150.9z"/>
		<path d="M676.5,137.8c1.4,10.5,10.5,18.1,25.3,18.1c7.7,0,17.9-2.9,22.7-7.9l13.4,13.3c-9,9.3-23.6,13.8-36.5,13.8
			c-29.3,0-46.7-18.1-46.7-45.3c0-25.8,17.6-44.4,45.1-44.4c28.4,0,46.1,17.6,42.9,52.5H676.5z M722.6,120.4
			c-1.4-11-10-16.5-22-16.5c-11.4,0-20.7,5.5-23.8,16.5H722.6z"/>
		<path d="M758.9,208.2V87.9h19.6l1.4,11.7c6.5-9.5,17.9-13.6,27.6-13.6c26.2,0,43.6,19.5,43.6,44.4c0,24.8-15.7,44.4-42.9,44.4
			c-9,0-22.2-2.8-28.2-12.1v45.5H758.9z M830.1,130.4c0-13.3-9-24.1-24.1-24.1s-24.1,10.8-24.1,24.1c0,13.3,9.8,24.1,24.1,24.1
			C820.2,154.5,830.1,143.7,830.1,130.4z"/>
	</g>
	<g id="A_Fabric_Deployment_Tool" class="st4">
		<path class="st5" d="M293.5,251.7l-3.5,8h-3.8l14.1-31.5h3.7l14.1,31.5h-3.9l-3.5-8H293.5z M302,232.3l-7,16h14.1L302,232.3z"/>
		<path class="st5" d="M338.9,231.7v11.1h14.7v3.5h-14.7v13.5h-3.6v-31.5h20v3.5H338.9z"/>
		<path class="st5" d="M374.9,256.1c-1.9,2.6-4.9,3.8-8.7,3.8c-4.9,0-8-3.1-8-7.2c0-4.1,3.3-6.7,8.9-6.8h7.8v-1.4
			c0-3.5-2.2-5.5-6.3-5.5c-2.6,0-5,1-7.5,2.7l-1.5-2.6c3.1-2,5.6-3.2,9.7-3.2c5.8,0,9.1,3.1,9.1,8.2l0,15.6h-3.4V256.1z
			 M374.8,251.5v-2.8h-7.4c-4,0-6,1.2-6,3.8s2.1,4.3,5.4,4.3C370.9,256.8,373.9,254.8,374.8,251.5z"/>
		<path class="st5" d="M410.3,247.9c0,7-4.6,11.9-11.3,11.9c-4.2,0-7.5-1.9-9.2-5.2v5.1h-3.5v-33.4h3.5v14.8c1.8-3.3,5-5.3,9.1-5.3
			C405.7,235.9,410.3,240.8,410.3,247.9z M406.8,247.8c0-5.1-3.5-8.8-8.5-8.8c-5,0-8.5,3.7-8.5,8.8c0,5.2,3.5,8.8,8.5,8.8
			C403.3,256.6,406.8,253,406.8,247.8z"/>
		<path class="st5" d="M420,241.3c1.6-3.5,4.5-5.3,8.5-5.4v3.6c-5-0.1-8.1,3-8.5,7.7v12.6h-3.5V236h3.5V241.3z"/>
		<path class="st5" d="M437.2,229.2c0,1.4-1,2.4-2.3,2.4s-2.3-1-2.3-2.4s1-2.4,2.3-2.4S437.2,227.8,437.2,229.2z M433.2,259.7V236
			h3.5v23.7H433.2z"/>
		<path class="st5" d="M463.7,239.4l-1.9,2.5c-1.8-1.7-4.2-2.7-7.1-2.7c-4.9,0-8.4,3.6-8.4,8.7c0,5.2,3.5,8.8,8.4,8.8
			c3.1,0,5.7-1.1,7.3-3.1l2,2.2c-2.1,2.6-5.4,4.1-9.5,4.1c-6.9,0-11.7-4.9-11.7-12s4.9-12,11.7-12
			C458.4,235.9,461.5,237.2,463.7,239.4z"/>
		<path class="st5" d="M496,228.2c9.2,0,16.2,6.8,16.2,15.7s-7.1,15.7-16.3,15.7h-12.6v-31.5H496z M486.9,256.3h9.2
			c7,0,12.5-5.3,12.5-12.3c0-7.1-5.6-12.3-12.6-12.3h-9V256.3z"/>
		<path class="st5" d="M538.6,249.2h-19.3c0.6,4.6,4,7.6,8.6,7.6c2.9,0,5.5-1,7.3-3l1.9,2.1c-2.2,2.5-5.6,4-9.5,4
			c-7,0-11.8-4.9-11.8-12s4.9-12,11.7-12C535.2,235.9,539,241.2,538.6,249.2z M535.5,246.4c-0.2-4.5-3.3-7.4-7.9-7.4
			c-4.5,0-7.7,2.9-8.3,7.4H535.5z"/>
		<path class="st5" d="M568.9,247.9c0,7-4.6,11.9-11.3,11.9c-4.2,0-7.5-1.9-9.2-5.2v13.8h-3.5V236h3.5v5.1c1.8-3.3,5-5.3,9.1-5.3
			C564.2,235.9,568.9,240.8,568.9,247.9z M565.3,247.8c0-5.1-3.5-8.8-8.5-8.8c-5,0-8.5,3.7-8.5,8.8c0,5.2,3.5,8.8,8.5,8.8
			C561.8,256.6,565.3,253,565.3,247.8z"/>
		<path class="st5" d="M575.3,259.7v-33.4h3.5v33.4H575.3z"/>
		<path class="st5" d="M609.2,247.8c0,7.1-5,12-12,12s-12-4.9-12-12c0-7.1,5-11.9,12-11.9S609.2,240.8,609.2,247.8z M588.7,247.9
			c0,5.2,3.6,8.8,8.5,8.8c4.9,0,8.5-3.6,8.5-8.8c0-5.2-3.6-8.8-8.5-8.8C592.2,239.1,588.7,242.7,588.7,247.9z"/>
		<path class="st5" d="M622.1,263.1c-1.5,3.6-4,5.5-7.1,5.5c-2,0-3.6-0.6-5-1.8l1.5-2.9c1.1,0.8,2.2,1.1,3.3,1.1
			c1.8,0,3.4-1.1,4.3-3.3l1-2.2l-9.8-23.5h3.7l7.9,19.6l7.5-19.6h3.6L622.1,263.1z"/>
		<path class="st5" d="M676.7,245.1v14.6h-3.5V246c0-4.2-2.5-6.7-6.6-6.7c-4.9,0.1-7.7,3.6-7.7,8.7v11.6h-3.6V246
			c0-4.2-2.4-6.7-6.6-6.7c-4.9,0.1-7.8,3.6-7.8,8.7v11.6h-3.5V236h3.5v5.3c1.6-3.7,4.8-5.4,9-5.5c4.5,0,7.5,2.3,8.5,6.2
			c1.5-4.2,4.8-6.2,9.3-6.2C673.4,235.9,676.7,239.4,676.7,245.1z"/>
		<path class="st5" d="M704.9,249.2h-19.3c0.6,4.6,4,7.6,8.6,7.6c2.9,0,5.5-1,7.3-3l1.9,2.1c-2.2,2.5-5.6,4-9.5,4
			c-7,0-11.8-4.9-11.8-12s4.9-12,11.7-12C701.4,235.9,705.2,241.2,704.9,249.2z M701.7,246.4c-0.2-4.5-3.3-7.4-7.9-7.4
			c-4.5,0-7.7,2.9-8.3,7.4H701.7z"/>
		<path class="st5" d="M732.5,245.1v14.6H729V246c0-4.2-2.5-6.7-6.7-6.7c-4.7,0-7.6,3.1-8,7.6v12.7h-3.5V236h3.5v5.2
			c1.7-3.6,4.9-5.3,9.2-5.3C729.2,235.9,732.5,239.4,732.5,245.1z"/>
		<path class="st5" d="M752.6,258.1c-1.7,1.1-3.5,1.8-5.3,1.8c-3.5,0-6-2.1-6-6.7v-13.5h-3.4v-2.8h3.4v-6.2h3.5v6.2l7.5,0v2.9h-7.5
			v12.9c0,2.9,1.1,4,3.1,4c1.2,0,2.5-0.4,3.8-1.2L752.6,258.1z"/>
		<path class="st5" d="M780.3,231.7v28h-3.6v-28h-10.2v-3.5h24.1v3.5H780.3z"/>
		<path class="st5" d="M813.6,247.8c0,7.1-5,12-12,12s-12-4.9-12-12c0-7.1,5-11.9,12-11.9S813.6,240.8,813.6,247.8z M793.1,247.9
			c0,5.2,3.6,8.8,8.5,8.8c4.9,0,8.5-3.6,8.5-8.8c0-5.2-3.6-8.8-8.5-8.8C796.7,239.1,793.1,242.7,793.1,247.9z"/>
		<path class="st5" d="M841.4,247.8c0,7.1-5,12-12,12s-12-4.9-12-12c0-7.1,5-11.9,12-11.9S841.4,240.8,841.4,247.8z M820.9,247.9
			c0,5.2,3.6,8.8,8.5,8.8c4.9,0,8.5-3.6,8.5-8.8c0-5.2-3.6-8.8-8.5-8.8C824.4,239.1,820.9,242.7,820.9,247.9z"/>
		<path class="st5" d="M847.8,259.7v-33.4h3.5v33.4H847.8z"/>
	</g>
</g>
</svg>
